<svg width="101" height="40" viewBox="0 0 101 40" fill="none" xmlns="http://www.w3.org/2000/svg">
<path d="M17.8399 17.7526H26.7979C26.429 20.3077 25.2447 22.3872 23.2452 23.9897C21.2456 25.5934 18.8011 26.3941 15.9102 26.3941C13.5292 26.3941 11.339 25.8583 9.33945 24.7879C7.33992 23.7175 5.7742 22.245 4.64105 20.3727C3.5079 18.5005 2.94071 16.524 2.94071 14.4458C2.94071 12.4166 3.48796 10.4917 4.58371 8.66846C5.67822 6.84649 7.22274 5.40216 9.21604 4.33791C11.2093 3.27366 13.3061 2.74154 15.5101 2.74154C17.2802 2.74154 19.0978 3.13266 20.9639 3.91614C22.8288 4.69838 24.5454 5.84845 26.1123 7.3639L28.2901 5.33472C26.2906 3.46861 24.2412 2.11256 22.1394 1.26778C20.0377 0.421775 17.7963 0 15.4153 0C12.4734 0 9.83809 0.636341 7.50696 1.90657C5.17709 3.17803 3.34335 4.94115 2.00576 7.19593C0.668172 9.45071 0 11.887 0 14.5047C0 18.0248 1.16556 21.1243 3.49544 23.8046C6.5259 27.2867 10.6396 29.0277 15.8354 29.0277C20.1137 29.0277 23.5306 27.7722 26.0836 25.2612C28.6367 22.7501 29.9256 19.3588 29.9518 15.0883H17.8399V17.7526Z" fill="#F8BEC2"/>
<path d="M96.9571 0.69397H96.5071L85.193 23.3705L73.7705 0.69397H73.3143L69.4873 26.9801L57.0251 0.69397H56.337L44.3423 25.6621H34.1938V0.69397H31.3865V28.3301H43.0608H45.0055H46.1935L50.5702 19.2374H62.6746L67.0938 28.3301H69.2903H70.1268H72.0029L74.7628 8.41589L84.8166 28.3301H85.5346L95.4699 8.56547L98.2461 28.3301H101L96.9571 0.69397ZM51.8555 16.5694L56.6698 6.56572L61.4617 16.5694H51.8555Z" fill="#F8BEC2"/>
<path d="M32.2391 39.8407C32.1967 39.799 32.1755 39.7462 32.1755 39.6813V33.389C32.1755 33.3178 32.1967 33.2627 32.2391 33.2198C32.2815 33.1768 32.3351 33.1572 32.4012 33.1572H35.0851C35.7844 33.1572 36.3092 33.3215 36.662 33.6489C37.0148 33.9763 37.1906 34.4066 37.1906 34.94C37.1906 35.2992 37.107 35.5984 36.9413 35.8362C36.7742 36.0741 36.5772 36.247 36.3491 36.3561C36.6234 36.491 36.8552 36.6994 37.0447 36.9826C37.2342 37.2659 37.3289 37.5895 37.3289 37.9561C37.3289 38.3154 37.2454 38.644 37.0796 38.9395C36.9126 39.235 36.667 39.4691 36.3404 39.6432C36.0138 39.8161 35.6224 39.9032 35.1649 39.9032H32.4024C32.3351 39.9032 32.2815 39.8823 32.2391 39.8407ZM34.938 36.0103C35.3494 36.0103 35.6647 35.9172 35.8829 35.7308C36.1023 35.5444 36.2107 35.2845 36.2107 34.9498C36.2107 34.6224 36.1035 34.3711 35.8879 34.1982C35.6722 34.0253 35.3556 33.9382 34.938 33.9382H33.1354V36.0103H34.938ZM35.0352 39.1234C35.4466 39.1234 35.7682 39.0143 36.0001 38.796C36.2319 38.5778 36.3479 38.2982 36.3479 37.9574C36.3479 37.6043 36.2319 37.3198 36.0001 37.104C35.7682 36.8894 35.4466 36.7816 35.0352 36.7816H33.1354V39.1234H35.0352Z" fill="#F8BEC2"/>
<path d="M38.7826 39.8407C38.7402 39.799 38.719 39.7462 38.719 39.6813V33.389C38.719 33.3178 38.7402 33.2627 38.7826 33.2198C38.825 33.1768 38.8786 33.1572 38.9446 33.1572H42.9911C43.0559 33.1572 43.1095 33.1781 43.1531 33.2198C43.1955 33.2614 43.2167 33.3178 43.2167 33.389V33.7556C43.2167 33.8193 43.1967 33.8733 43.1581 33.9149C43.1195 33.9566 43.0634 33.9775 42.9911 33.9775H39.6602V36.0876H42.7754C42.8402 36.0876 42.8951 36.1084 42.9375 36.1501C42.9798 36.1918 43.001 36.2482 43.001 36.3193V36.6761C43.001 36.7399 42.9798 36.7938 42.9375 36.8355C42.8951 36.8772 42.8415 36.898 42.7754 36.898H39.6602V39.0854H43.0696C43.1419 39.0854 43.1967 39.105 43.2366 39.143C43.2753 39.181 43.2952 39.2362 43.2952 39.3073V39.6825C43.2952 39.7462 43.274 39.8002 43.2316 39.8419C43.1893 39.8836 43.1357 39.9044 43.0696 39.9044H38.9446C38.8798 39.9032 38.825 39.8823 38.7826 39.8407Z" fill="#F8BEC2"/>
<path d="M44.0581 39.8456C44.0195 39.8075 43.9995 39.7622 43.9995 39.7107C43.9995 39.6592 44.0032 39.6236 44.0095 39.604L46.4391 33.3693C46.4914 33.2283 46.5962 33.1572 46.752 33.1572H47.4177C47.5747 33.1572 47.6782 33.2283 47.7306 33.3693L50.1502 39.604L50.1701 39.7107C50.1701 39.7622 50.1502 39.8063 50.1115 39.8456C50.0729 39.8836 50.0268 39.9032 49.9744 39.9032H49.4745C49.4022 39.9032 49.3474 39.886 49.3075 39.8505C49.2688 39.8149 49.2427 39.7781 49.229 39.7401L48.6917 38.3718H45.478L44.9394 39.7401C44.9257 39.7781 44.8983 39.8161 44.8559 39.8505C44.8135 39.886 44.7599 39.9032 44.6939 39.9032H44.194C44.1429 39.9032 44.098 39.8836 44.0581 39.8456ZM48.4075 37.543L47.0848 34.1222L45.7622 37.543H48.4075Z" fill="#F8BEC2"/>
<path d="M51.7248 39.3305C51.2648 38.8842 51.0342 38.2074 51.0342 37.3026V33.3901C51.0342 33.319 51.0554 33.2638 51.0978 33.2209C51.1401 33.1792 51.1937 33.1584 51.2598 33.1584H51.7597C51.832 33.1584 51.8881 33.1792 51.9317 33.2209C51.9741 33.2626 51.9953 33.319 51.9953 33.3901V37.321C51.9953 37.9377 52.1424 38.3999 52.4366 38.7089C52.7308 39.0166 53.1447 39.1711 53.6807 39.1711C54.2155 39.1711 54.6306 39.0166 54.9248 38.7089C55.219 38.3999 55.3661 37.9377 55.3661 37.321V33.3901C55.3661 33.319 55.3873 33.2638 55.4297 33.2209C55.472 33.178 55.5256 33.1584 55.5917 33.1584H56.1016C56.1664 33.1584 56.22 33.1805 56.2636 33.2258C56.306 33.2712 56.3272 33.3251 56.3272 33.3901V37.3026C56.3272 38.2087 56.0966 38.8842 55.6366 39.3305C55.1766 39.7768 54.5246 40 53.6819 40C52.8392 40 52.1848 39.7768 51.7248 39.3305Z" fill="#F8BEC2"/>
<path d="M59.5221 39.8407C59.4797 39.799 59.4585 39.7462 59.4585 39.6813V34.0155H57.5774C57.5126 34.0155 57.4578 33.9946 57.4154 33.953C57.373 33.9113 57.3518 33.8586 57.3518 33.7936V33.389C57.3518 33.3252 57.373 33.27 57.4154 33.2247C57.4578 33.1793 57.5114 33.1572 57.5774 33.1572H62.2995C62.3718 33.1572 62.4279 33.1781 62.4716 33.2198C62.5139 33.2614 62.5351 33.3178 62.5351 33.389V33.7936C62.5351 33.8573 62.5127 33.9113 62.4666 33.953C62.4204 33.9946 62.3656 34.0155 62.2995 34.0155H60.4284V39.6813C60.4284 39.745 60.4047 39.799 60.3598 39.8407C60.3137 39.8823 60.2589 39.9032 60.1928 39.9032H59.6829C59.6181 39.9032 59.5645 39.8823 59.5221 39.8407Z" fill="#F8BEC2"/>
<path d="M65.5268 39.8406C65.4844 39.7989 65.4632 39.7462 65.4632 39.6812V37.4068L63.1022 33.4759C63.1022 33.4637 63.0984 33.4441 63.0922 33.4183C63.0785 33.3926 63.0723 33.3705 63.0723 33.3509C63.0723 33.2994 63.0922 33.2552 63.1309 33.216C63.1695 33.1768 63.2156 33.1584 63.268 33.1584H63.7778C63.8888 33.1584 63.9736 33.2136 64.0321 33.3227L65.9419 36.4443L67.8517 33.3227C67.924 33.2136 68.0113 33.1584 68.116 33.1584H68.6158C68.6744 33.1584 68.7231 33.178 68.763 33.216C68.8016 33.254 68.8215 33.2994 68.8215 33.3509C68.8215 33.3828 68.8078 33.4244 68.7829 33.4759L66.4318 37.4068V39.6812C66.4318 39.7449 66.4094 39.7989 66.3633 39.8406C66.3171 39.8823 66.2623 39.9031 66.1962 39.9031H65.6864C65.624 39.9031 65.5692 39.8823 65.5268 39.8406Z" fill="#F8BEC2"/>
</svg>
