<svg width="24" height="21" viewBox="0 0 24 21" fill="none" xmlns="http://www.w3.org/2000/svg">
<path d="M22.107 1.90909C21.2056 2.85185 20.3718 3.98316 19.6056 5.30303C18.8845 6.62289 18.4113 7.94276 18.1859 9.26263C19.8535 9.26263 21.2282 9.75758 22.3099 10.7475C23.4366 11.7374 24 13.1279 24 14.9192C24 16.6633 23.4817 18.1246 22.4451 19.303C21.4535 20.4343 20.1465 21 18.5239 21C16.9014 21 15.5718 20.4108 14.5352 19.2323C13.5437 18.0067 13.0479 16.5219 13.0479 14.7778C13.0479 11.8552 13.7239 9.0505 15.0761 6.36363C16.4282 3.62963 18.1408 1.50842 20.2141 0L22.107 1.90909ZM9.05916 1.90909C8.15775 2.85185 7.32394 3.98316 6.55775 5.30303C5.83662 6.62289 5.36338 7.94276 5.13803 9.26263C6.80563 9.26263 8.18028 9.75758 9.26197 10.7475C10.3887 11.7374 10.9521 13.1279 10.9521 14.9192C10.9521 16.6633 10.4338 18.1246 9.39718 19.303C8.40563 20.4343 7.09859 21 5.47606 21C3.85352 21 2.52394 20.4108 1.48732 19.2323C0.495774 18.0067 0 16.5219 0 14.7778C0 11.8552 0.676056 9.0505 2.02817 6.36363C3.38028 3.62963 5.09296 1.50842 7.1662 0L9.05916 1.90909Z" fill="#FB9EAE"/>
</svg>
